<svg xmlns="http://www.w3.org/2000/svg" width="29" height="19" viewBox="0 0 29 19">
    <g fill="#E6E6E6" fill-rule="evenodd">
        <path fill-rule="nonzero" d="M4.452 1.18l2.307 2.242A19.17 19.17 0 0 0 .133 9.258L0 9.468l.105.223c.037.078 3.824 7.91 14.723 7.91 1.927.014 3.845-.26 5.687-.81L22.79 19 24 17.82 5.663 0 4.452 1.18zm10.376 13.089c-2.708-.004-4.902-2.136-4.905-4.767 0-.831.23-1.647.664-2.363l.247.243c.075 1.295 1.139 2.329 2.471 2.402l3.96 3.848a4.965 4.965 0 0 1-2.437.637z"/>
        <path d="M28.87 9.887C28.822 9.81 23.924 2 14.54 2a16.131 16.131 0 0 0-4.54.648l5.724 5.724c.034-.164.05-.33.051-.497a2.552 2.552 0 0 0-1.853-2.45c.21-.037.42-.06.633-.066a4.79 4.79 0 0 1 4.769 4.772c0 .535-.092 1.066-.271 1.57L23.355 16c3.964-2.326 5.518-5.628 5.543-5.679l.102-.223-.13-.21z"/>
    </g>
</svg>
