<svg xmlns="http://www.w3.org/2000/svg" width="21" height="21" viewBox="0 0 21 21">
    <g fill="none" fill-rule="evenodd">
        <path fill="#FFF" d="M7.215.574c-2.61.875-4.833 2.788-6.071 5.21A10.256 10.256 0 0 0 .21 8.425a10.347 10.347 0 0 0 .928 6.79 10.64 10.64 0 0 0 2.909 3.506 10.76 10.76 0 0 0 3.893 1.925c1.786.468 3.687.457 5.484.056 1.624-.367 3.162-1.129 4.389-2.235 1.296-1.169 2.223-2.704 2.713-4.358.536-1.8.605-3.725.27-5.576h-10.08v4.098h5.841c-.224 1.309-1.02 2.506-2.142 3.245a6.21 6.21 0 0 1-2.362.914c-.84.142-1.716.158-2.557-.005a6.41 6.41 0 0 1-2.385-1.01 6.505 6.505 0 0 1-2.454-3.224 6.25 6.25 0 0 1 0-4.086 6.537 6.537 0 0 1 1.555-2.478 6.39 6.39 0 0 1 3.203-1.744 6.519 6.519 0 0 1 3.145.124A5.795 5.795 0 0 1 14.87 5.7l1.97-1.93c.345-.345.708-.678 1.042-1.033a10.484 10.484 0 0 0-3.45-2.094A11.022 11.022 0 0 0 7.215.574z"/>
        <path fill="#EA4335" d="M6.984.581a11.42 11.42 0 0 1 7.378.063 10.702 10.702 0 0 1 3.527 2.118c-.342.36-.713.696-1.066 1.044L14.81 5.76a6.008 6.008 0 0 0-2.36-1.348 6.663 6.663 0 0 0-3.216-.125 6.603 6.603 0 0 0-4.863 4.27c-1.196-.902-2.391-1.799-3.592-2.7C2.044 3.4 4.317 1.466 6.984.58z"/>
        <path fill="#FBBC05" d="M.21 8.06c.191-.905.503-1.788.936-2.616 1.171.883 2.343 1.76 3.52 2.644a6.083 6.083 0 0 0 0 4.046c-1.171.883-2.343 1.766-3.515 2.644a10.051 10.051 0 0 1-.94-6.718z"/>
        <path fill="#4285F4" d="M10.895 8.556h9.907c.328 1.878.255 3.837-.266 5.676-.481 1.683-1.393 3.245-2.667 4.435l-3.346-2.637a5.04 5.04 0 0 0 2.106-3.304h-5.74c.006-1.39.006-2.78.006-4.17z"/>
        <path fill="#34A853" d="M.778 15.148c1.2-.897 2.4-1.8 3.6-2.704a6.632 6.632 0 0 0 4.967 4.287c.863.172 1.756.149 2.625.006a6.427 6.427 0 0 0 2.425-.926l3.494 2.624c-1.26 1.126-2.838 1.892-4.506 2.263-1.844.406-3.795.418-5.628-.057a11.013 11.013 0 0 1-3.997-1.949 10.785 10.785 0 0 1-2.98-3.544z"/>
    </g>
</svg>
